<?xml version="1.0" standalone="no"?>
<!DOCTYPE svg PUBLIC "-//W3C//DTD SVG 20010904//EN"
 "http://www.w3.org/TR/2001/REC-SVG-20010904/DTD/svg10.dtd">
<svg version="1.0" xmlns="http://www.w3.org/2000/svg"
 width="812.000000pt" height="812.000000pt" viewBox="0 0 812.000000 812.000000"
 preserveAspectRatio="xMidYMid meet">
<metadata>
Created by potrace 1.14, written by Peter Selinger 2001-2017
</metadata>
<g transform="translate(0.000000,812.000000) scale(0.100000,-0.100000)"
fill="#000000" stroke="none">
<path d="M0 4060 l0 -4060 4060 0 4060 0 0 4060 0 4060 -4060 0 -4060 0 0
-4060z m3515 1649 l-80 -5 80 -3 c139 -6 146 -18 9 -17 -73 1 -130 4 -127 9 2
4 -3 7 -12 7 -9 0 -13 -4 -10 -10 3 -6 -5 -10 -19 -10 -13 0 -32 -3 -40 -6
-12 -4 -15 -2 -10 9 7 20 33 26 141 33 48 4 89 8 91 9 1 1 15 -1 30 -4 18 -4
0 -8 -53 -12z m122 15 c-3 -3 -12 -4 -19 -1 -8 3 -5 6 6 6 11 1 17 -2 13 -5z
m923 -3 c0 -5 -9 -7 -20 -4 -11 3 -20 7 -20 9 0 2 9 4 20 4 11 0 20 -4 20 -9z
m198 -6 c3 -3 -38 -5 -91 -5 -53 0 -97 3 -97 8 0 8 180 5 188 -3z m-228 -12
c3 -3 -6 -4 -20 -2 -14 1 -32 -1 -40 -4 -61 -22 -79 -25 -73 -12 2 8 8 14 11
13 4 0 21 0 37 1 23 1 27 3 15 11 -11 7 -3 8 25 4 22 -3 42 -8 45 -11z m290 7
c10 0 28 -8 40 -18 l23 -18 -38 4 c-26 3 -33 7 -24 13 9 6 -1 7 -26 4 -22 -3
-89 -7 -150 -10 -60 -2 -119 -6 -130 -8 -11 -3 -40 -7 -65 -10 l-45 -6 45 15
c26 9 101 18 178 21 73 3 135 10 138 15 3 5 13 7 21 4 8 -3 23 -6 33 -6z
m-1163 -6 c-3 -3 -12 -4 -19 -1 -8 3 -5 6 6 6 11 1 17 -2 13 -5z m97 -6 c-5
-8 0 -9 14 -6 12 4 22 2 22 -4 0 -5 3 -7 8 -5 4 3 13 -2 21 -10 12 -13 11 -14
-10 -7 -13 4 -44 13 -69 20 -43 11 -44 12 -15 16 17 3 31 6 33 7 2 0 0 -4 -4
-11z m1 -28 c13 -6 5 -7 -25 -3 -25 3 -47 7 -49 9 -9 8 55 2 74 -6z m1240 -10
c13 -6 15 -9 5 -9 -8 0 -22 4 -30 9 -18 12 -2 12 25 0z m-1152 -17 c-7 -2 -19
-2 -25 0 -7 3 -2 5 12 5 14 0 19 -2 13 -5z m915 -150 c-21 -2 -55 -2 -75 0
-21 2 -4 4 37 4 41 0 58 -2 38 -4z m-1391 -9 c-3 -3 -12 -4 -19 -1 -8 3 -5 6
6 6 11 1 17 -2 13 -5z m230 0 c-3 -3 -12 -4 -19 -1 -8 3 -5 6 6 6 11 1 17 -2
13 -5z m1000 0 c-3 -3 -12 -4 -19 -1 -8 3 -5 6 6 6 11 1 17 -2 13 -5z m260 0
c-3 -3 -12 -4 -19 -1 -8 3 -5 6 6 6 11 1 17 -2 13 -5z m-1124 -61 c-9 -3 -8
-11 3 -29 22 -33 12 -30 -13 4 l-21 28 22 1 c11 1 15 -1 9 -4z m735 -10 c-12
-15 -22 -18 -14 -4 4 5 0 11 -6 14 -7 3 -3 4 9 4 17 -1 19 -4 11 -14z m643
-17 c5 3 9 -2 9 -10 0 -13 -3 -14 -19 -4 -11 7 -17 17 -14 22 4 6 8 5 11 -2 2
-7 8 -10 13 -6z m-666 -16 c-12 -19 6 -32 19 -14 7 9 15 13 18 8 3 -5 -9 -20
-26 -33 -17 -14 -25 -18 -19 -11 9 10 9 17 2 26 -10 12 -5 34 7 34 3 0 2 -4
-1 -10z m700 -10 c-3 -5 -1 -11 5 -15 15 -10 12 -19 -12 -34 -23 -14 -23 -13
-5 7 12 13 15 22 8 27 -6 3 -11 13 -11 21 0 8 5 12 10 9 6 -4 8 -10 5 -15z
m-1416 -9 c8 -5 16 -18 17 -28 2 -16 0 -15 -15 4 -10 12 -21 20 -24 17 -3 -3
-8 -1 -12 5 -8 13 15 14 34 2z m843 -34 c10 -2 21 -6 24 -10 4 -4 13 -2 21 5
11 8 12 7 7 -6 -4 -11 -1 -16 12 -17 11 0 14 -3 7 -6 -7 -2 -13 -10 -13 -17 0
-7 -6 -13 -12 -14 -7 -1 -32 -4 -56 -8 -57 -8 -106 11 -92 36 24 45 38 50 102
37z m-1256 -6 c-3 -4 9 -8 27 -8 51 0 86 -7 81 -15 -3 -4 2 -8 11 -8 23 0 10
-17 -28 -36 -35 -19 -94 -25 -119 -12 -25 12 -22 46 5 69 24 20 31 23 23 10z
m1685 -34 c-10 -9 -11 -8 -5 6 3 10 9 15 12 12 3 -3 0 -11 -7 -18z m19 -17 c0
-5 -5 -10 -11 -10 -5 0 -7 5 -4 10 3 6 8 10 11 10 2 0 4 -4 4 -10z m-297 -117
c-7 -2 -19 -2 -25 0 -7 3 -2 5 12 5 14 0 19 -2 13 -5z m65 0 c-10 -2 -26 -2
-35 0 -10 3 -2 5 17 5 19 0 27 -2 18 -5z"/>
<path d="M4506 5295 c7 -16 51 -20 72 -6 10 6 4 10 -18 15 -49 9 -60 8 -54 -9z"/>
<path d="M3310 5281 c0 -6 4 -12 10 -16 13 -8 61 5 54 16 -7 12 -64 12 -64 0z"/>
</g>
</svg>
